<svg xmlns="http://www.w3.org/2000/svg" width="400" height="400" fill="none">
  <path fill="#fff" d="M0 0h400v400H0z"/>
  <path fill="#000" fill-rule="evenodd" d="M24 338V62h80.64v.003c43.888.346 79.36 36.301 79.36 80.605 0 44.303-35.472 80.258-79.36 80.604v.003H80.32V338H24z" clip-rule="evenodd"/>
  <path stroke="#E5E5E5" stroke-opacity=".34" d="M170.7 138.094c0 38.19-30.726 69.145-68.62 69.145-37.894 0-68.62-30.954-68.62-69.145 0-38.192 30.726-69.145 68.62-69.145 37.894 0 68.62 30.953 68.62 69.145z"/>
  <ellipse cx="60.8" cy="61.262" fill="#18A1A6" rx="60.8" ry="61.262" transform="translate(40.64 76.187)"/>
  <path fill="#18A1A6" d="M137.28 68.449l9.977 5.803-12.16 21.222-9.977-5.803z"/>
  <path fill="#000" fill-rule="evenodd" d="M216 62v276h80.64v-.003c43.888-.346 79.36-36.301 79.36-80.605 0-44.303-35.472-80.258-79.36-80.604v-.003h-24.32V62H216z" clip-rule="evenodd"/>
  <path stroke="#E5E5E5" stroke-opacity=".34" d="M362.7 261.906c0-38.191-30.726-69.145-68.62-69.145-37.894 0-68.62 30.954-68.62 69.145 0 38.191 30.726 69.145 68.62 69.145 37.894 0 68.62-30.954 68.62-69.145z"/>
  <ellipse cx="60.8" cy="61.262" fill="#D84263" rx="60.8" ry="61.262" transform="matrix(1 0 0 -1 232.64 323.813)"/>
  <path fill="#D84263" d="M329.28 331.551l9.977-5.804-12.16-21.222-9.977 5.804z"/>
</svg>
